<svg id="A_Logo" data-name="A+ Logo" xmlns="http://www.w3.org/2000/svg" viewBox="0 0 97 90"><defs><style>.cls-1{fill:#1a61ed;}</style></defs><title>Artboard 1</title><path class="cls-1" d="M55.7816,59.9544c-.5089-1.1363-2.8834-12.054-2.9351-12.3638-.0187-.1116.1875-.1819.2562-.2092a2.8365,2.8365,0,0,0,.9645-.4207c.2084-.1555.2257-.2965.2223-.6505a3.5769,3.5769,0,0,0-.6916-2.108c-.2908-.28-.376-.3612-.5229-.3788-.4877-.0584-.7948.0922-1.1075.0285-.2222-.0453-.3243-.4759-.3623-.6214-.5646-2.1567-3.09-10.2764-5.6324-14.3771-.7717-1.2446-.6165-1.8868-1.0375-2.602-2.4913-4.2324-6.8529-4.0019-8.2791.252A60.6433,60.6433,0,0,0,35.2188,33.86c-.03.1856-.0777.2427-.1894.2614a9.294,9.294,0,0,0-1.1609-.0123c-.4427.1264-.6672.8284-.6918,1.0684-.2736,2.6692-.37,10.26-.3917,12.5326-.0029.3123.0459.4611-.3658.527-1.3291.2142-2.1568.5159-3.1455.6258a.708.708,0,0,0-.6239.774,10.9848,10.9848,0,0,0,.1032,3.1455c.0843.42.3187.512.9324.4776.8055-.0452,1.8275-.2971,2.3218-.3483.2145-.0222.2876.0038.2687.1757-.247,2.248-.489,6.8275-.8365,11.8077a23.0891,23.0891,0,0,0-.2224,2.5444c0,1.2.1152,1.961,1.054,1.96a9.8684,9.8684,0,0,0,4.6607-1.268c.8562-.7411.1507-2.1214.1432-2.6022-.1235-7.88.2779-11.2065.2531-13.0345a.5451.5451,0,0,1,.4188-.7167c4.2737-1.3586,8.1666-2.4714,9.9553-2.8161.6436-.124.8465.4774.9387.9387.5818,2.9138,1.4568,6.9568,2.3468,10.7458a21.8612,21.8612,0,0,1,.1976,2.6432c.0494.9758.7618.8261.8893.8152,2.0256-.1729,4.15-1.3615,4.4289-2.1C56.852,61.0825,55.9362,60.4944,55.7816,59.9544Zm-9.01-15.2c-1.7307.6576-6.0257,1.4764-8.7267,2.1967-.6175.1647-.6175.2806-.5766-.1711.4528-5.0147.8466-12.17,2.4934-17.0862.1278-.3813.5435-.5105.7906-.0988,1.8143,3.0236,5.2718,10.066,6.2929,14.6773C47.1176,44.5982,47.1834,44.5974,46.7717,44.7539Z"/><path class="cls-1" d="M56.1753,17.4078c-1.2434-.2914-3.8949-1.087.4291-2.6924,1.3511-.5016,3.56-.4715,6.2282-.3255a22.3992,22.3992,0,0,1,8.0409,1.7786A30.3122,30.3122,0,0,1,75.9746,18.54c4.6318,2.73,7.8431,5.1505,12.2526,11.6721,2.2672,3.3531,2.5918,5.5766,3.5078,9.2018a40.3172,40.3172,0,0,1,1.26,9.5354,28.941,28.941,0,0,1-2.0381,11.2521,35.63,35.63,0,0,1-8.8807,14.3771A35.8017,35.8017,0,0,1,70.4535,81.693c-7.846,3.3218-13.6434,4.519-19.466,4.2242C43.1815,85.5219,36.68,86.28,27.1,81.3224c-4.0828-2.1127-14.476-6.2416-20.4375-19.927-.928-2.13-5.2042-15.53-.8234-25.411a50.0317,50.0317,0,0,1,7.2461-11.6763A53.5649,53.5649,0,0,1,23.23,15.3,47.7626,47.7626,0,0,1,37.5739,8.2142a85.0078,85.0078,0,0,1,11.0834-2.4,86.36,86.36,0,0,1,8.87-.8564,3.997,3.997,0,0,0,1.4245-.3582,2.3493,2.3493,0,0,1,2.3345.2594c1.2933,1.47,1.0512,5.0565,1.0458,6.1345-.0042.8317-.984,1.3258-2.2125,1.0787a24.7035,24.7035,0,0,0-4.8953-.3623c-4.0044.3623-8.1489,1.0805-9.9593,1.3669A59.7179,59.7179,0,0,0,37.64,14.921a49.43,49.43,0,0,0-10.4576,4.9241A50.0486,50.0486,0,0,0,14.88,31.6531a28.6461,28.6461,0,0,0-4.5784,9.8812,32.055,32.055,0,0,0,1.1694,17.77,27.6457,27.6457,0,0,0,5.237,8.4813c3.1125,3.4255,5.96,5.1827,9.7494,7.3944a40.9794,40.9794,0,0,0,8.9424,3.92,41.9266,41.9266,0,0,0,11.6433,2.0256c7.4769.4694,11.281.212,15.9375-1.1363a40.265,40.265,0,0,0,9.7536-4.6607c4.0842-2.3714,8.4275-4.87,11.7586-10.49a34.606,34.606,0,0,0,4.5453-11.9891,37.08,37.08,0,0,0-1.2434-13.7677,28.3177,28.3177,0,0,0-3.0384-6.7934,23.7624,23.7624,0,0,0-5.7805-6.3363,40.57,40.57,0,0,0-10.9929-6.2127,29.298,29.298,0,0,0-7.1144-1.8528C58.843,17.5848,57.5309,17.7254,56.1753,17.4078Z"/><path class="cls-1" d="M65.8834,31.5708c.7913-.3389,1.528-.3281,1.614.0988.5731,2.8446.7428,3.8938,1.3108,7.909.06.4248.13.6072.4482.55C71.1026,39.8,73.1345,39.2959,74.9,39.08c.2086-.0254.5188.0989.7163.5929.1765.4414.4107.7625.4448.9387a1.7378,1.7378,0,0,1-.0988,1.1858A7.29,7.29,0,0,1,74.01,43.5117a3.9729,3.9729,0,0,1-1.012.3117c-1.2805.2615-2.1245.4354-2.88.5772-.4389.0823-.4036.1639-.3706.4274a48.8814,48.8814,0,0,0,1.324,5.5664,1.2731,1.2731,0,0,1-.0988,1.1857c-.5928.8234-2.9482,1.8053-4.43,1.8939a.8432.8432,0,0,1-1.0045-1.0046,5.89,5.89,0,0,0,.0859-.8976c-.0534-1.3-.38-3.7985-.7035-5.76-.1072-.65-.1248-.5337-.5023-.457-1.2281.25-2.8716.6056-5.0435,1.0005a.8028.8028,0,0,1-.951-.5065,14.9269,14.9269,0,0,1-1.06-3.1125.81.81,0,0,1,.61-1.06c2.4989-.4025,3.1825-.516,5.2781-.7254.5113-.0511.5792-.0881.53-.5078-.1923-1.6386-.7525-2.8223-1.105-5.382-.04-.2872-.3171-1.1522.0946-1.5639A10.5861,10.5861,0,0,1,65.8834,31.5708Z"/></svg>